<mxfile host="Electron" modified="2024-02-29T02:33:45.031Z" agent="Mozilla/5.0 (Windows NT 10.0; Win64; x64) AppleWebKit/537.36 (KHTML, like Gecko) draw.io/23.1.5 Chrome/120.0.6099.109 Electron/28.1.0 Safari/537.36" etag="42kfXo9fDE3RpJ_YJtEw" version="23.1.5" type="device">
  <diagram name="第 1 页" id="-S2tFFtkINJocTdcbrvZ">
    <mxGraphModel dx="1208" dy="702" grid="1" gridSize="10" guides="1" tooltips="1" connect="1" arrows="1" fold="1" page="1" pageScale="1" pageWidth="827" pageHeight="1169" math="0" shadow="0">
      <root>
        <mxCell id="0" />
        <mxCell id="1" parent="0" />
        <mxCell id="RD_Kn3eTQgftrucP7Ojp-15" value="" style="rounded=0;whiteSpace=wrap;html=1;" parent="1" vertex="1">
          <mxGeometry x="230" y="320" width="60" height="460" as="geometry" />
        </mxCell>
        <mxCell id="RD_Kn3eTQgftrucP7Ojp-29" value="" style="edgeStyle=orthogonalEdgeStyle;rounded=0;orthogonalLoop=1;jettySize=auto;html=1;" parent="1" source="RD_Kn3eTQgftrucP7Ojp-16" target="RD_Kn3eTQgftrucP7Ojp-26" edge="1">
          <mxGeometry relative="1" as="geometry" />
        </mxCell>
        <mxCell id="RD_Kn3eTQgftrucP7Ojp-16" value="129~144" style="rounded=0;whiteSpace=wrap;html=1;fillColor=#f5f5f5;fontColor=#333333;strokeColor=#666666;" parent="1" vertex="1">
          <mxGeometry x="230" y="320" width="60" height="60" as="geometry" />
        </mxCell>
        <mxCell id="RD_Kn3eTQgftrucP7Ojp-32" value="" style="edgeStyle=orthogonalEdgeStyle;rounded=0;orthogonalLoop=1;jettySize=auto;html=1;" parent="1" source="RD_Kn3eTQgftrucP7Ojp-18" target="RD_Kn3eTQgftrucP7Ojp-31" edge="1">
          <mxGeometry relative="1" as="geometry" />
        </mxCell>
        <mxCell id="RD_Kn3eTQgftrucP7Ojp-18" value="145~160" style="rounded=0;whiteSpace=wrap;html=1;" parent="1" vertex="1">
          <mxGeometry x="230" y="380" width="60" height="60" as="geometry" />
        </mxCell>
        <mxCell id="RD_Kn3eTQgftrucP7Ojp-19" value="" style="rounded=0;whiteSpace=wrap;html=1;fillColor=#f5f5f5;fontColor=#333333;strokeColor=#666666;" parent="1" vertex="1">
          <mxGeometry x="230" y="560" width="60" height="60" as="geometry" />
        </mxCell>
        <mxCell id="RD_Kn3eTQgftrucP7Ojp-20" value="...." style="rounded=0;whiteSpace=wrap;html=1;fillColor=#f5f5f5;fontColor=#333333;strokeColor=#666666;" parent="1" vertex="1">
          <mxGeometry x="230" y="670" width="60" height="60" as="geometry" />
        </mxCell>
        <mxCell id="RD_Kn3eTQgftrucP7Ojp-30" value="" style="edgeStyle=orthogonalEdgeStyle;rounded=0;orthogonalLoop=1;jettySize=auto;html=1;" parent="1" source="RD_Kn3eTQgftrucP7Ojp-22" target="RD_Kn3eTQgftrucP7Ojp-28" edge="1">
          <mxGeometry relative="1" as="geometry" />
        </mxCell>
        <mxCell id="RD_Kn3eTQgftrucP7Ojp-22" value="160~175" style="rounded=0;whiteSpace=wrap;html=1;fillColor=#f5f5f5;fontColor=#333333;strokeColor=#666666;" parent="1" vertex="1">
          <mxGeometry x="230" y="440" width="60" height="60" as="geometry" />
        </mxCell>
        <mxCell id="RD_Kn3eTQgftrucP7Ojp-23" value="176~191" style="rounded=0;whiteSpace=wrap;html=1;" parent="1" vertex="1">
          <mxGeometry x="230" y="500" width="60" height="60" as="geometry" />
        </mxCell>
        <mxCell id="RD_Kn3eTQgftrucP7Ojp-24" value="" style="rounded=0;whiteSpace=wrap;html=1;" parent="1" vertex="1">
          <mxGeometry x="230" y="620" width="60" height="60" as="geometry" />
        </mxCell>
        <mxCell id="RD_Kn3eTQgftrucP7Ojp-34" value="" style="edgeStyle=orthogonalEdgeStyle;rounded=0;orthogonalLoop=1;jettySize=auto;html=1;" parent="1" source="RD_Kn3eTQgftrucP7Ojp-26" target="RD_Kn3eTQgftrucP7Ojp-33" edge="1">
          <mxGeometry relative="1" as="geometry" />
        </mxCell>
        <mxCell id="RD_Kn3eTQgftrucP7Ojp-26" value="144B" style="rounded=0;whiteSpace=wrap;html=1;" parent="1" vertex="1">
          <mxGeometry x="330" y="320" width="60" height="60" as="geometry" />
        </mxCell>
        <mxCell id="RD_Kn3eTQgftrucP7Ojp-27" value="144B" style="rounded=0;whiteSpace=wrap;html=1;" parent="1" vertex="1">
          <mxGeometry x="410" y="320" width="60" height="60" as="geometry" />
        </mxCell>
        <mxCell id="RD_Kn3eTQgftrucP7Ojp-36" value="" style="edgeStyle=orthogonalEdgeStyle;rounded=0;orthogonalLoop=1;jettySize=auto;html=1;" parent="1" source="RD_Kn3eTQgftrucP7Ojp-28" target="RD_Kn3eTQgftrucP7Ojp-35" edge="1">
          <mxGeometry relative="1" as="geometry" />
        </mxCell>
        <mxCell id="RD_Kn3eTQgftrucP7Ojp-28" value="175B" style="rounded=0;whiteSpace=wrap;html=1;" parent="1" vertex="1">
          <mxGeometry x="330" y="440" width="60" height="60" as="geometry" />
        </mxCell>
        <mxCell id="RD_Kn3eTQgftrucP7Ojp-31" value="NULLPTR" style="text;html=1;align=center;verticalAlign=middle;resizable=0;points=[];autosize=1;strokeColor=none;fillColor=none;" parent="1" vertex="1">
          <mxGeometry x="320" y="395" width="80" height="30" as="geometry" />
        </mxCell>
        <mxCell id="RD_Kn3eTQgftrucP7Ojp-33" value="NULLPTR" style="text;html=1;align=center;verticalAlign=middle;resizable=0;points=[];autosize=1;strokeColor=none;fillColor=none;" parent="1" vertex="1">
          <mxGeometry x="500" y="335" width="80" height="30" as="geometry" />
        </mxCell>
        <mxCell id="RD_Kn3eTQgftrucP7Ojp-35" value="NULLPTR" style="text;html=1;align=center;verticalAlign=middle;resizable=0;points=[];autosize=1;strokeColor=none;fillColor=none;" parent="1" vertex="1">
          <mxGeometry x="440" y="455" width="80" height="30" as="geometry" />
        </mxCell>
        <mxCell id="RD_Kn3eTQgftrucP7Ojp-37" value="ThreadCache" style="text;html=1;align=center;verticalAlign=middle;resizable=0;points=[];autosize=1;strokeColor=none;fillColor=none;" parent="1" vertex="1">
          <mxGeometry x="210" y="290" width="100" height="30" as="geometry" />
        </mxCell>
        <mxCell id="X0fFuHbSTyEUpfdh1TxO-4" value="" style="edgeStyle=orthogonalEdgeStyle;rounded=0;orthogonalLoop=1;jettySize=auto;html=1;" parent="1" source="RD_Kn3eTQgftrucP7Ojp-38" target="X0fFuHbSTyEUpfdh1TxO-3" edge="1">
          <mxGeometry relative="1" as="geometry" />
        </mxCell>
        <mxCell id="RD_Kn3eTQgftrucP7Ojp-38" value="1009~1024" style="rounded=0;whiteSpace=wrap;html=1;" parent="1" vertex="1">
          <mxGeometry x="230" y="730" width="60" height="60" as="geometry" />
        </mxCell>
        <mxCell id="X0fFuHbSTyEUpfdh1TxO-1" value="每一个哈希桶之间都相差16字节" style="text;html=1;align=center;verticalAlign=middle;resizable=0;points=[];autosize=1;strokeColor=none;fillColor=none;" parent="1" vertex="1">
          <mxGeometry x="310" y="520" width="190" height="30" as="geometry" />
        </mxCell>
        <mxCell id="X0fFuHbSTyEUpfdh1TxO-6" value="" style="edgeStyle=orthogonalEdgeStyle;rounded=0;orthogonalLoop=1;jettySize=auto;html=1;" parent="1" source="X0fFuHbSTyEUpfdh1TxO-3" target="X0fFuHbSTyEUpfdh1TxO-5" edge="1">
          <mxGeometry relative="1" as="geometry" />
        </mxCell>
        <mxCell id="X0fFuHbSTyEUpfdh1TxO-3" value="1024B" style="rounded=0;whiteSpace=wrap;html=1;" parent="1" vertex="1">
          <mxGeometry x="330" y="730" width="60" height="60" as="geometry" />
        </mxCell>
        <mxCell id="X0fFuHbSTyEUpfdh1TxO-5" value="NULLPTR" style="text;html=1;align=center;verticalAlign=middle;resizable=0;points=[];autosize=1;strokeColor=none;fillColor=none;" parent="1" vertex="1">
          <mxGeometry x="430" y="745" width="80" height="30" as="geometry" />
        </mxCell>
      </root>
    </mxGraphModel>
  </diagram>
</mxfile>
